<svg width="430" height="932" viewBox="0 0 430 932" fill="none" xmlns="http://www.w3.org/2000/svg">
<g clip-path="url(#clip0_16_4029)">
<rect width="430" height="932" fill="url(#paint0_linear_16_4029)"/>
<path d="M-4 982V593.145C70.7924 566.436 234.549 541.484 434 592.906V982H-4Z" fill="url(#paint1_linear_16_4029)" stroke="#060000" stroke-width="2"/>
<path d="M302 575V575C321.375 571.716 341.259 573.197 359.934 579.315L360.5 579.5L346.5 710.5L302 702.5V575Z" fill="url(#paint2_linear_16_4029)"/>
<path d="M363.517 582.975V582.975C383.124 581.64 402.76 585.097 420.732 593.047L421.277 593.288L394.278 722.238L350.798 709.839L363.517 582.975Z" fill="url(#paint3_linear_16_4029)"/>
<path d="M161 571.982V571.982C141.793 568.71 122.077 570.185 103.571 576.278L103 576.466L116.88 707L161 699.028V571.982Z" fill="url(#paint4_linear_16_4029)"/>
<path d="M99.2037 576.955V576.955C79.7605 575.701 60.3055 579.22 42.534 587.206L41.9857 587.453L69.3795 715.832L112.43 703.311L99.2037 576.955Z" fill="url(#paint5_linear_16_4029)"/>
<path d="M43.6706 608.869V608.869C24.2069 609.748 5.2533 615.373 -11.5385 625.255L-12.0566 625.56L29.2099 750.174L70.6328 733.021L43.6706 608.869Z" fill="url(#paint6_linear_16_4029)"/>
<path d="M231.5 570.885V570.885C251.168 568.514 271.075 568.972 290.613 572.246L297.412 573.385L297.412 703.877L237 697.386L231.5 570.885Z" fill="url(#paint7_linear_16_4029)"/>
<path d="M165.548 573.775V573.775C185.197 569.418 205.407 568.171 225.442 570.079L227.5 570.275L232.5 700.275L164 700.275L165.548 573.775Z" fill="url(#paint8_linear_16_4029)"/>
<path d="M362.5 578L356.5 577L356 580.5L362.653 581.565L368.5 582.5V579.5L362.5 578Z" fill="#A006FF"/>
<path d="M220 394L214.5 393.5L215 390.5L226 391.5L225.5 394.5L220 394Z" fill="#A006FF"/>
<path d="M258 564.5L264.81 564.323L270 564.5L269.5 562.5H257.5L258 564.5Z" fill="#A006FF"/>
<path d="M52 573.5L43.5 575L44.5 578.5L55.317 575.726L64 573.5L63 572L52 573.5Z" fill="#A006FF"/>
<path d="M237.5 643L217.86 643.5C217.796 643.335 217.734 643.169 217.673 643L199 643.5L198.5 646H237.5V643Z" fill="#A006FF"/>
<path d="M224.5 614C237.5 613 251.5 618.5 252.5 608.5C252.833 609.667 255.3 611.3 262.5 608.5C269.7 605.7 290.333 591 291.5 587.5M224.5 614C208.342 612.766 184.886 595.561 165.668 582.131C150.806 571.745 132.53 569.881 114.609 572.637C90.9577 576.275 64.5953 578.555 55.317 575.726M224.5 614C215.907 614.661 215.78 637.74 217.673 643M291.5 587.5C292.594 591.191 333.807 591.642 358.5 588C362.379 587.428 362.753 584.596 362.653 581.565M291.5 587.5C287.164 587.201 272.419 570.859 264.81 564.323M237.5 459C233.833 458 219.2 399.2 220 394M220 394L214.5 393.5L215 390.5L226 391.5L225.5 394.5L220 394ZM362.653 581.565L356 580.5L356.5 577L362.5 578L368.5 579.5V582.5L362.653 581.565ZM264.81 564.323L258 564.5L257.5 562.5H269.5L270 564.5L264.81 564.323ZM55.317 575.726L44.5 578.5L43.5 575L52 573.5L63 572L64 573.5L55.317 575.726ZM217.673 643C217.734 643.169 217.796 643.335 217.86 643.5L237.5 643V646H198.5L199 643.5L217.673 643Z" stroke="#060000"/>
<path d="M-4 982V698.5C70.7924 671.791 234.549 646.839 434 698.261V982H-4Z" fill="url(#paint9_linear_16_4029)"/>
<path d="M302 688.5V688.5C321.375 685.216 341.259 686.697 359.934 692.815L360.5 693L346.5 824L302 816V688.5Z" fill="url(#paint10_linear_16_4029)"/>
<path d="M363.517 696.975V696.975C383.124 695.64 402.76 699.097 420.732 707.047L421.277 707.288L394.278 836.238L350.798 823.839L363.517 696.975Z" fill="url(#paint11_linear_16_4029)"/>
<path d="M161 685.982V685.982C141.793 682.71 122.077 684.185 103.571 690.278L103 690.466L116.88 821L161 813.028V685.982Z" fill="url(#paint12_linear_16_4029)"/>
<path d="M99.2037 690.955V690.955C79.7605 689.701 60.3055 693.22 42.534 701.206L41.9857 701.453L69.3795 829.832L112.43 817.311L99.2037 690.955Z" fill="url(#paint13_linear_16_4029)"/>
<path d="M43.6706 722.947V722.947C24.2069 723.826 5.2533 729.452 -11.5385 739.333L-12.0566 739.638L29.2099 864.253L70.6328 847.1L43.6706 722.947Z" fill="url(#paint14_linear_16_4029)"/>
<path d="M231.5 685V685C251.168 682.628 271.075 683.086 290.613 686.361L297.412 687.5L297.412 817.991L237 811.5L231.5 685Z" fill="url(#paint15_linear_16_4029)"/>
<path d="M165.548 688V688C185.197 683.643 205.407 682.396 225.442 684.304L227.5 684.5L232.5 814.5L164 814.5L165.548 688Z" fill="url(#paint16_linear_16_4029)"/>
<path d="M-4 982V848C70.7924 821.291 234.549 796.339 434 847.761V982H-4Z" fill="url(#paint17_linear_16_4029)"/>
<path opacity="0.5" d="M302 826.379V826.379C321.375 823.095 341.259 824.576 359.934 830.693L360.5 830.879L346.5 961.879L302 953.879V826.379Z" fill="url(#paint18_linear_16_4029)"/>
<path opacity="0.5" d="M363.517 834.854V834.854C383.124 833.519 402.76 836.976 420.732 844.926L421.277 845.167L394.278 974.117L350.798 961.718L363.517 834.854Z" fill="url(#paint19_linear_16_4029)"/>
<path opacity="0.5" d="M161 823.861V823.861C141.793 820.589 122.077 822.064 103.571 828.157L103 828.345L116.88 958.879L161 950.907V823.861Z" fill="url(#paint20_linear_16_4029)"/>
<path opacity="0.5" d="M99.2037 828.834V828.834C79.7605 827.579 60.3055 831.099 42.534 839.085L41.9857 839.331L69.3795 967.711L112.43 955.19L99.2037 828.834Z" fill="url(#paint21_linear_16_4029)"/>
<path opacity="0.5" d="M43.6706 860.826V860.826C24.2069 861.705 5.2533 867.33 -11.5385 877.212L-12.0566 877.517L29.2099 1002.13L70.6328 984.978L43.6706 860.826Z" fill="url(#paint22_linear_16_4029)"/>
<path opacity="0.5" d="M231.5 822.879V822.879C251.168 820.507 271.075 820.965 290.613 824.239L297.412 825.379L297.412 955.87L237 949.379L231.5 822.879Z" fill="url(#paint23_linear_16_4029)"/>
<path opacity="0.5" d="M165.548 825.879V825.879C185.197 821.522 205.407 820.274 225.442 822.183L227.5 822.379L232.5 952.379L164 952.379L165.548 825.879Z" fill="url(#paint24_linear_16_4029)"/>
<path d="M224.5 214.5L221.5 218.5L223 225.5M223 225.5C221.5 227.833 218.5 232.6 218.5 233C218.5 233.4 218.167 237.167 218 239M223 225.5L224.5 231.5L230 235.5L229 239" stroke="#060000"/>
<path d="M402.333 -9L395 6.5L406 18.5M406 18.5C402 24.6905 392 46.9388 392 48C392 49.0612 362.444 65.1361 362 70M406 18.5L419 30.5L417 46.7143V89" stroke="#060000"/>
<path d="M22 133L-3 155.5L14.5 165.5M14.5 165.5C10.5 171.69 -6 195.939 -6 197C-6 198.061 -35.5556 214.136 -36 219M14.5 165.5L13.5 181L4.33334 216L17 228.5" stroke="#060000"/>
<path d="M224 380.125L223.721 383.312V387M224 380.125L222.109 380L220 380.125L220.266 380.718C221.244 382.902 222.4 385.003 223.721 387V387M224 380.125L225.891 380L228 380.125V380.125C226.598 381.87 225.378 383.755 224.36 385.749L223.721 387" stroke="#060000" stroke-width="1.2"/>
<g filter="url(#filter0_f_16_4029)">
<circle cx="215" cy="-174" r="250" fill="white"/>
</g>
<g filter="url(#filter1_i_16_4029)">
<path d="M384 133.525L426.669 123L462.324 133.525L467 158.085L462.324 192L419.655 184.983L384 170.364L387.507 150.483L384 133.525Z" fill="#ADADAD"/>
</g>
<path d="M387.999 150.57L388.016 150.476L387.997 150.382L384.587 133.896L426.657 123.518L461.89 133.919L466.493 158.098L461.899 191.423L419.792 184.499L384.562 170.055L387.999 150.57Z" stroke="#7E807B"/>
</g>
<defs>
<filter id="filter0_f_16_4029" x="-179" y="-568" width="788" height="788" filterUnits="userSpaceOnUse" color-interpolation-filters="sRGB">
<feFlood flood-opacity="0" result="BackgroundImageFix"/>
<feBlend mode="normal" in="SourceGraphic" in2="BackgroundImageFix" result="shape"/>
<feGaussianBlur stdDeviation="72" result="effect1_foregroundBlur_16_4029"/>
</filter>
<filter id="filter1_i_16_4029" x="384" y="123" width="83" height="69" filterUnits="userSpaceOnUse" color-interpolation-filters="sRGB">
<feFlood flood-opacity="0" result="BackgroundImageFix"/>
<feBlend mode="normal" in="SourceGraphic" in2="BackgroundImageFix" result="shape"/>
<feColorMatrix in="SourceAlpha" type="matrix" values="0 0 0 0 0 0 0 0 0 0 0 0 0 0 0 0 0 0 127 0" result="hardAlpha"/>
<feOffset dx="-3" dy="4"/>
<feComposite in2="hardAlpha" operator="arithmetic" k2="-1" k3="1"/>
<feColorMatrix type="matrix" values="0 0 0 0 0 0 0 0 0 0 0 0 0 0 0 0 0 0 0.1 0"/>
<feBlend mode="normal" in2="shape" result="effect1_innerShadow_16_4029"/>
</filter>
<linearGradient id="paint0_linear_16_4029" x1="215" y1="0" x2="215" y2="932" gradientUnits="userSpaceOnUse">
<stop stop-color="#858783"/>
<stop offset="1" stop-color="#9FA19C"/>
</linearGradient>
<linearGradient id="paint1_linear_16_4029" x1="215" y1="563" x2="215" y2="1591" gradientUnits="userSpaceOnUse">
<stop stop-color="#958779"/>
<stop offset="1" stop-color="#2F2B26"/>
</linearGradient>
<linearGradient id="paint2_linear_16_4029" x1="325.5" y1="694.5" x2="347" y2="575" gradientUnits="userSpaceOnUse">
<stop stop-color="#776C61" stop-opacity="0.1"/>
<stop offset="1" stop-color="#DDC9B4" stop-opacity="0.03"/>
</linearGradient>
<linearGradient id="paint3_linear_16_4029" x1="374.979" y1="704.223" x2="408.293" y2="587.464" gradientUnits="userSpaceOnUse">
<stop stop-color="#776C61" stop-opacity="0.1"/>
<stop offset="1" stop-color="#DDC9B4" stop-opacity="0.03"/>
</linearGradient>
<linearGradient id="paint4_linear_16_4029" x1="137.701" y1="691.057" x2="116.176" y2="572.02" gradientUnits="userSpaceOnUse">
<stop stop-color="#776C61" stop-opacity="0.1"/>
<stop offset="1" stop-color="#DDC9B4" stop-opacity="0.03"/>
</linearGradient>
<linearGradient id="paint5_linear_16_4029" x1="88.4271" y1="697.808" x2="54.6276" y2="581.659" gradientUnits="userSpaceOnUse">
<stop stop-color="#776C61" stop-opacity="0.1"/>
<stop offset="1" stop-color="#DDC9B4" stop-opacity="0.03"/>
</linearGradient>
<linearGradient id="paint6_linear_16_4029" x1="46.1727" y1="730.176" x2="-0.123961" y2="618.418" gradientUnits="userSpaceOnUse">
<stop stop-color="#776C61" stop-opacity="0.1"/>
<stop offset="1" stop-color="#DDC9B4" stop-opacity="0.03"/>
</linearGradient>
<linearGradient id="paint7_linear_16_4029" x1="274.217" y1="691.268" x2="277.236" y2="569.886" gradientUnits="userSpaceOnUse">
<stop stop-color="#776C61" stop-opacity="0.1"/>
<stop offset="1" stop-color="#DDC9B4" stop-opacity="0.03"/>
</linearGradient>
<linearGradient id="paint8_linear_16_4029" x1="208.265" y1="691.157" x2="211.285" y2="569.776" gradientUnits="userSpaceOnUse">
<stop stop-color="#776C61" stop-opacity="0.1"/>
<stop offset="1" stop-color="#DDC9B4" stop-opacity="0.03"/>
</linearGradient>
<linearGradient id="paint9_linear_16_4029" x1="215" y1="563" x2="215" y2="1249.5" gradientUnits="userSpaceOnUse">
<stop stop-color="#958779"/>
<stop offset="1" stop-color="#2F2B26"/>
</linearGradient>
<linearGradient id="paint10_linear_16_4029" x1="325.5" y1="808" x2="347" y2="688.5" gradientUnits="userSpaceOnUse">
<stop stop-color="#776C61" stop-opacity="0.1"/>
<stop offset="1" stop-color="#DDC9B4" stop-opacity="0.03"/>
</linearGradient>
<linearGradient id="paint11_linear_16_4029" x1="374.979" y1="818.223" x2="408.293" y2="701.464" gradientUnits="userSpaceOnUse">
<stop stop-color="#776C61" stop-opacity="0.1"/>
<stop offset="1" stop-color="#DDC9B4" stop-opacity="0.03"/>
</linearGradient>
<linearGradient id="paint12_linear_16_4029" x1="137.701" y1="805.057" x2="116.176" y2="686.02" gradientUnits="userSpaceOnUse">
<stop stop-color="#776C61" stop-opacity="0.1"/>
<stop offset="1" stop-color="#DDC9B4" stop-opacity="0.03"/>
</linearGradient>
<linearGradient id="paint13_linear_16_4029" x1="88.4271" y1="811.808" x2="54.6276" y2="695.659" gradientUnits="userSpaceOnUse">
<stop stop-color="#776C61" stop-opacity="0.1"/>
<stop offset="1" stop-color="#DDC9B4" stop-opacity="0.03"/>
</linearGradient>
<linearGradient id="paint14_linear_16_4029" x1="46.1727" y1="844.254" x2="-0.123961" y2="732.497" gradientUnits="userSpaceOnUse">
<stop stop-color="#776C61" stop-opacity="0.1"/>
<stop offset="1" stop-color="#DDC9B4" stop-opacity="0.03"/>
</linearGradient>
<linearGradient id="paint15_linear_16_4029" x1="274.217" y1="805.382" x2="277.236" y2="684.001" gradientUnits="userSpaceOnUse">
<stop stop-color="#776C61" stop-opacity="0.1"/>
<stop offset="1" stop-color="#DDC9B4" stop-opacity="0.03"/>
</linearGradient>
<linearGradient id="paint16_linear_16_4029" x1="208.265" y1="805.382" x2="211.285" y2="684.001" gradientUnits="userSpaceOnUse">
<stop stop-color="#776C61" stop-opacity="0.1"/>
<stop offset="1" stop-color="#DDC9B4" stop-opacity="0.03"/>
</linearGradient>
<linearGradient id="paint17_linear_16_4029" x1="215" y1="525.5" x2="215" y2="1249.5" gradientUnits="userSpaceOnUse">
<stop stop-color="#958779"/>
<stop offset="1" stop-color="#2F2B26"/>
</linearGradient>
<linearGradient id="paint18_linear_16_4029" x1="325.5" y1="945.879" x2="347" y2="826.379" gradientUnits="userSpaceOnUse">
<stop stop-color="#776C61" stop-opacity="0.1"/>
<stop offset="1" stop-color="#DDC9B4" stop-opacity="0.03"/>
</linearGradient>
<linearGradient id="paint19_linear_16_4029" x1="374.979" y1="956.102" x2="408.293" y2="839.343" gradientUnits="userSpaceOnUse">
<stop stop-color="#776C61" stop-opacity="0.1"/>
<stop offset="1" stop-color="#DDC9B4" stop-opacity="0.03"/>
</linearGradient>
<linearGradient id="paint20_linear_16_4029" x1="137.701" y1="942.936" x2="116.176" y2="823.899" gradientUnits="userSpaceOnUse">
<stop stop-color="#776C61" stop-opacity="0.1"/>
<stop offset="1" stop-color="#DDC9B4" stop-opacity="0.03"/>
</linearGradient>
<linearGradient id="paint21_linear_16_4029" x1="88.4271" y1="949.687" x2="54.6276" y2="833.538" gradientUnits="userSpaceOnUse">
<stop stop-color="#776C61" stop-opacity="0.1"/>
<stop offset="1" stop-color="#DDC9B4" stop-opacity="0.03"/>
</linearGradient>
<linearGradient id="paint22_linear_16_4029" x1="46.1727" y1="982.133" x2="-0.123961" y2="870.376" gradientUnits="userSpaceOnUse">
<stop stop-color="#776C61" stop-opacity="0.1"/>
<stop offset="1" stop-color="#DDC9B4" stop-opacity="0.03"/>
</linearGradient>
<linearGradient id="paint23_linear_16_4029" x1="274.217" y1="943.261" x2="277.236" y2="821.88" gradientUnits="userSpaceOnUse">
<stop stop-color="#776C61" stop-opacity="0.1"/>
<stop offset="1" stop-color="#DDC9B4" stop-opacity="0.03"/>
</linearGradient>
<linearGradient id="paint24_linear_16_4029" x1="208.265" y1="943.261" x2="211.285" y2="821.88" gradientUnits="userSpaceOnUse">
<stop stop-color="#776C61" stop-opacity="0.1"/>
<stop offset="1" stop-color="#DDC9B4" stop-opacity="0.03"/>
</linearGradient>
<clipPath id="clip0_16_4029">
<rect width="430" height="932" fill="white"/>
</clipPath>
</defs>
</svg>
