<svg width="29" height="53" viewBox="0 0 29 53" fill="none" xmlns="http://www.w3.org/2000/svg">
<g filter="url(#filter0_d_16_4577)">
<path d="M3.5 9.52856L2 49.0286C10.8 54.6286 18 50.0286 20.5 47.0286L23 10.5286L3.5 9.52856Z" fill="url(#paint0_linear_16_4577)"/>
<path d="M3.5 9.52856L23 10.5286C21.5 8.52856 17.4 4.62856 13 5.02856C8.6 5.42856 4.83333 8.19523 3.5 9.52856Z" fill="#E2D1C9"/>
<path d="M3.5 9.52856L2 49.0286C10.8 54.6286 18 50.0286 20.5 47.0286L23 10.5286M3.5 9.52856L23 10.5286M3.5 9.52856C4.83333 8.19523 8.6 5.42856 13 5.02856C17.4 4.62856 21.5 8.52856 23 10.5286M11.5 7.5H15.5" stroke="#060000" stroke-width="2"/>
<path d="M12.6206 27.4957L12.0469 30.6435L11.7047 34.3151M12.6206 27.4957L10.7488 27.1957L8.63781 27.1245L8.8472 27.7391C9.61921 30.0052 10.5749 32.2045 11.7047 34.3151V34.3151M12.6206 27.4957L14.5155 27.5467L16.6033 27.8669V27.8669C15.0454 29.4747 13.6561 31.2377 12.4572 33.1284L11.7047 34.3151" stroke="#060000" stroke-width="1.2"/>
</g>
<defs>
<filter id="filter0_d_16_4577" x="0.978516" y="0" width="27.0449" height="52.667" filterUnits="userSpaceOnUse" color-interpolation-filters="sRGB">
<feFlood flood-opacity="0" result="BackgroundImageFix"/>
<feColorMatrix in="SourceAlpha" type="matrix" values="0 0 0 0 0 0 0 0 0 0 0 0 0 0 0 0 0 0 127 0" result="hardAlpha"/>
<feOffset dx="2" dy="-2"/>
<feGaussianBlur stdDeviation="1"/>
<feComposite in2="hardAlpha" operator="out"/>
<feColorMatrix type="matrix" values="0 0 0 0 0 0 0 0 0 0 0 0 0 0 0 0 0 0 0.25 0"/>
<feBlend mode="normal" in2="BackgroundImageFix" result="effect1_dropShadow_16_4577"/>
<feBlend mode="normal" in="SourceGraphic" in2="effect1_dropShadow_16_4577" result="shape"/>
</filter>
<linearGradient id="paint0_linear_16_4577" x1="12.5" y1="5" x2="12.5" y2="51.6671" gradientUnits="userSpaceOnUse">
<stop stop-color="#FFFB1F"/>
<stop offset="1" stop-color="#999713"/>
</linearGradient>
</defs>
</svg>
