<svg width="327" height="257" viewBox="0 0 327 257" fill="none" xmlns="http://www.w3.org/2000/svg">
<path d="M320 188.5L314 187.5L313.5 191L320.153 192.065L326 193V190L320 188.5Z" fill="#A006FF"/>
<path d="M177.5 4.5L172 4L172.5 1L183.5 2L183 5L177.5 4.5Z" fill="#A006FF"/>
<path d="M215.5 175L222.31 174.823L227.5 175L227 173H215L215.5 175Z" fill="#A006FF"/>
<path d="M9.5 184L1 185.5L2 189L12.817 186.226L21.5 184L20.5 182.5L9.5 184Z" fill="#A006FF"/>
<path d="M195 253.5L175.36 254C175.296 253.835 175.234 253.669 175.173 253.5L156.5 254L156 256.5H195V253.5Z" fill="#A006FF"/>
<path d="M182 224.5C195 223.5 209 229 210 219C210.333 220.167 212.8 221.8 220 219C227.2 216.2 247.833 201.5 249 198M182 224.5C165.842 223.266 142.386 206.061 123.168 192.631C108.306 182.245 90.0299 180.381 72.1094 183.137C48.4577 186.775 22.0953 189.055 12.817 186.226M182 224.5C173.407 225.161 173.28 248.24 175.173 253.5M249 198C250.094 201.691 291.307 202.142 316 198.5C319.879 197.928 320.253 195.096 320.153 192.065M249 198C244.664 197.701 229.919 181.359 222.31 174.823M202.435 99.5C198.768 98.5 176.7 9.7 177.5 4.5M177.5 4.5L172 4L172.5 1L183.5 2L183 5L177.5 4.5ZM320.153 192.065L313.5 191L314 187.5L320 188.5L326 190V193L320.153 192.065ZM222.31 174.823L215.5 175L215 173H227L227.5 175L222.31 174.823ZM12.817 186.226L2 189L1 185.5L9.5 184L20.5 182.5L21.5 184L12.817 186.226ZM175.173 253.5C175.234 253.669 175.296 253.835 175.36 254L195 253.5V256.5H156L156.5 254L175.173 253.5Z" stroke="#060000"/>
</svg>
