<svg width="91" height="107" viewBox="0 0 91 107" fill="none" xmlns="http://www.w3.org/2000/svg">
<g filter="url(#filter0_d_16_4580)">
<path d="M84.0149 56.7264C85.1124 82.7734 66.4245 103.105 40.3774 104.203C27.3514 104.752 17.6206 100.169 11.6243 92.3429C5.60841 84.4915 3.24062 73.2301 5.27411 60.2404C7.51981 45.895 12.2717 33.1824 19.687 23.9389C27.0807 14.7222 37.1379 8.92817 50.1248 8.38096C56.6191 8.10733 61.8672 9.35716 66.1147 11.7439C70.3638 14.1315 73.6744 17.6922 76.2363 22.1375C81.3799 31.0628 83.4563 43.468 84.0149 56.7264Z" fill="#D9D9D9" stroke="#060606" stroke-width="2"/>
<path d="M49.1219 41.8233L48.2173 44.378L47.4356 47.402M49.1219 41.8233L47.5973 41.3198L45.8417 40.9753L45.9338 41.5175C46.2735 43.5166 46.7758 45.4846 47.4356 47.402V47.402M49.1219 41.8233L50.6995 42.1217L52.4021 42.6712V42.6712C50.8824 43.8053 49.4827 45.0921 48.225 46.5112L47.4356 47.402" stroke="#060000" stroke-width="1.2"/>
<path d="M48.6155 12.1119C47.6965 12.6209 47.3227 13.6832 46.9112 14.5928C46.4322 15.6518 45.95 16.701 45.3943 17.7222" stroke="#060000" stroke-width="1.2" stroke-linecap="round"/>
<path d="M52.5472 13.0989C52.9518 13.0958 54.1451 13.0551 53.8892 13.7947C53.5896 14.6604 52.3719 15.3434 51.667 15.7612C50.0933 16.694 48.4485 17.2817 46.7103 17.7949C46.483 17.862 47.2782 17.9706 47.3919 18.0143C47.6796 18.1248 47.8832 18.371 48.1495 18.5186C49.4696 19.2509 51.3698 19.3117 52.8199 19.5704" stroke="#060000" stroke-width="1.2" stroke-linecap="round"/>
<path d="M63.9822 17.8035C63.9654 20.8794 62.3771 23.9557 61.188 26.7093" stroke="#060000" stroke-width="1.2" stroke-linecap="round"/>
<path d="M72.1631 34.1703C72.2144 33.4226 74.4007 34.0932 74.7451 34.2857C75.5814 34.753 74.9516 36.4802 74.7078 37.0085C73.4063 39.8283 69.9901 44.6402 66.3113 43.4531C65.7386 43.2683 65.6252 43.0049 66.2534 42.8392C66.9332 42.66 67.729 42.8125 68.3961 42.9731C69.5919 43.2609 70.5721 43.3836 71.8318 43.4046" stroke="#060000" stroke-width="1.2" stroke-linecap="round"/>
<path d="M75.4266 53.4819C76.4652 52.4148 79.355 53.6085 79.791 54.8667C80.2317 56.1386 79.6958 57.7739 78.5506 58.4807C77.9241 58.8673 77.3157 58.8821 76.6249 58.7459C76.2497 58.6719 76.4703 58.7657 76.7215 58.9499C77.2907 59.3672 79.9513 61.4972 77.8982 61.6136C76.3785 61.6997 74.778 61.2436 73.2663 61.0964C72.9836 61.0689 71.8612 61.1797 71.8406 60.6923" stroke="#060000" stroke-width="1.2" stroke-linecap="round"/>
<path d="M72.5459 70.603C71.0726 72.515 70.2998 75.1662 69.5839 77.4269C69.3716 78.0975 69.107 78.6058 69.9783 78.6189C71.113 78.6359 72.4495 78.6516 73.5429 78.3086C73.9302 78.1871 74.8347 77.3248 74.5123 77.5714C73.7446 78.1584 73.1879 79.5619 72.7159 80.3364C71.9515 81.5905 71.1412 82.8058 70.2271 83.9548" stroke="#060000" stroke-width="1.2" stroke-linecap="round"/>
<path d="M60.2152 85.6733C59.8213 86.74 59.4501 87.8228 58.8911 88.8185C58.5587 89.4106 58.3265 89.7424 57.8611 90.2065C57.6689 90.3982 57.3708 90.4973 57.2431 90.7368C57.2047 90.8089 58.3203 91.1439 58.4152 91.1997C59.0941 91.5987 59.6204 92.3536 60.0436 92.9959C60.9468 94.367 59.9169 95.0072 58.6859 95.7263C58.196 96.0126 56.0825 97.0041 56.0314 95.7902" stroke="#060000" stroke-width="1.2" stroke-linecap="round"/>
<path d="M60.0771 85.8232C61.7287 86.0065 63.3241 86.2676 64.997 86.3363" stroke="#060000" stroke-width="1.2" stroke-linecap="round"/>
<path d="M43.1754 91.5777C39.3975 91.2662 35.684 91.3026 32.5812 93.9209C30.6664 95.5367 30.453 97.754 31.6809 99.9056C32.6524 101.608 34.3629 101.707 36.1329 101.663C36.8969 101.644 39.3086 101.782 39.1694 100.406C39.0466 99.193 36.5495 98.0874 35.6241 97.7545C34.0969 97.2053 32.6073 97.0653 31.0197 97.1322" stroke="#060000" stroke-width="1.2" stroke-linecap="round"/>
<path d="M15.2598 82.093C16.7389 82.4394 18.4419 82.949 19.5072 84.1231C19.5954 84.2202 17.9369 86.3882 17.8485 86.546C16.8854 88.2659 16.2628 90.148 15.6779 92.016" stroke="#060000" stroke-width="1.2" stroke-linecap="round"/>
<path d="M13.0205 87.0857C15.1754 87.1904 17.3159 88.2544 19.427 88.6886" stroke="#060000" stroke-width="1.2" stroke-linecap="round"/>
<path d="M10.4105 66.1619C9.69293 64.551 8.58678 62.734 8.35068 60.9663C8.18829 59.7504 9.88708 59.7871 10.6553 60.1969C11.4033 60.5958 10.8693 61.7165 10.6606 62.2216C10.0579 63.6801 9.13217 64.597 7.82678 65.4384C7.36878 65.7336 5.55602 66.395 5.71499 67.1762C6.00577 68.605 7.57218 69.8037 8.69073 70.5564C9.41743 71.0454 11.6974 71.9823 12.5214 71.2434C12.9991 70.815 11.6099 69.0678 11.4337 68.7921C10.5631 67.4295 9.81587 65.969 8.90568 64.6406" stroke="#060000" stroke-width="1.2" stroke-linecap="round"/>
<path d="M13.0996 51.3538C13.871 51.6901 14.9997 52.2635 15.8596 51.8938C17.0854 51.3667 18.0527 49.9543 18.1558 48.6436C18.2681 47.2158 17.2071 45.5621 15.6596 45.6273C15.0937 45.6511 15.1489 46.7289 15.2418 47.1096C15.4779 48.0764 16.4475 48.8484 17.3291 49.1586" stroke="#060000" stroke-width="1.2" stroke-linecap="round"/>
<path d="M21.6603 32.2645C20.0451 32.9867 18.4156 33.641 17.4545 35.211C17.218 35.5972 17.082 36.0424 16.7906 36.3595" stroke="#060000" stroke-width="1.2" stroke-linecap="round"/>
<path d="M25.2325 34.9952C23.3176 35.2685 22.3652 37.8064 23.3697 39.4117C24.0792 40.5455 26.0016 40.1447 27.0382 39.8574C27.6245 39.6949 29.0884 39.1939 29.1204 38.369C29.195 36.4482 27.2878 35.4849 25.5444 35.5583" stroke="#060000" stroke-width="1.2" stroke-linecap="round"/>
<path d="M32.4102 20.7183C30.1431 21.895 29.7417 25.718 29.3995 27.9044" stroke="#060000" stroke-width="1.2" stroke-linecap="round"/>
<path d="M37.2658 23.1071C35.5785 24.8383 34.2515 26.817 33.0439 28.9036" stroke="#060000" stroke-width="1.2" stroke-linecap="round"/>
<path d="M46.9023 51.8572C49.5129 56.2674 54.0715 59.0567 57.5637 62.7507C59.3467 64.6367 61.2188 66.5615 63.1868 68.2575C64.4087 69.3105 65.3575 70.3708 66.1193 71.7248" stroke="#060000" stroke-width="4" stroke-linecap="round"/>
<path d="M46.4629 52.3352C47.9454 54.341 48.535 57.025 49.6446 59.2571C50.7142 61.4084 51.8857 63.5053 52.9885 65.6386C54.2861 68.149 55.2952 70.7925 56.5222 73.3373C57.4756 75.3146 58.781 77.2951 59.5482 79.3536" stroke="#060000" stroke-width="4" stroke-linecap="round"/>
</g>
<defs>
<filter id="filter0_d_16_4580" x="0.560547" y="0.34375" width="89.5" height="105.904" filterUnits="userSpaceOnUse" color-interpolation-filters="sRGB">
<feFlood flood-opacity="0" result="BackgroundImageFix"/>
<feColorMatrix in="SourceAlpha" type="matrix" values="0 0 0 0 0 0 0 0 0 0 0 0 0 0 0 0 0 0 127 0" result="hardAlpha"/>
<feOffset dx="1" dy="-3"/>
<feGaussianBlur stdDeviation="2"/>
<feComposite in2="hardAlpha" operator="out"/>
<feColorMatrix type="matrix" values="0 0 0 0 0 0 0 0 0 0 0 0 0 0 0 0 0 0 0.25 0"/>
<feBlend mode="normal" in2="BackgroundImageFix" result="effect1_dropShadow_16_4580"/>
<feBlend mode="normal" in="SourceGraphic" in2="effect1_dropShadow_16_4580" result="shape"/>
</filter>
</defs>
</svg>
