<svg width="43" height="32" viewBox="0 0 43 32" fill="none" xmlns="http://www.w3.org/2000/svg">
<g filter="url(#filter0_d_16_4574)">
<path d="M27.7804 5L3.78041 13C6.78042 15.3333 12.5804 22.1 11.7804 30.5L36.7804 18.5C38.7804 8.1 31.6137 5.16667 27.7804 5Z" fill="#EDF039"/>
<path d="M11.7804 30.5C5.94708 30.1667 -3.81959 26.2 3.78041 13C6.78042 15.3333 12.5804 22.1 11.7804 30.5Z" fill="#E2D1C9"/>
<path d="M3.78041 13L27.7804 5C31.6137 5.16667 38.7804 8.1 36.7804 18.5L11.7804 30.5M3.78041 13C-3.81959 26.2 5.94708 30.1667 11.7804 30.5M3.78041 13C6.78042 15.3333 12.5804 22.1 11.7804 30.5" stroke="#060000" stroke-width="2"/>
<path d="M24.2332 15.5515L21.3154 16.8648L18.0977 18.6658M24.2332 15.5515L23.4185 13.8399L22.2796 12.0611L21.8922 12.5821C20.464 14.5034 19.1949 16.538 18.0977 18.6658V18.6658M24.2332 15.5515L25.2661 17.141L26.1868 19.042V19.042C23.979 18.671 21.739 18.5271 19.5019 18.6123L18.0977 18.6658" stroke="#060000" stroke-width="1.2"/>
</g>
</svg>
