<svg width="29" height="53" viewBox="0 0 29 53" fill="none" xmlns="http://www.w3.org/2000/svg">
<g filter="url(#filter0_d_16_4577)">
<path d="M3.5 9.52856L2 49.0286C10.8 54.6286 18 50.0286 20.5 47.0286L23 10.5286L3.5 9.52856Z" fill="#EDF039"/>
<path d="M3.5 9.52856L23 10.5286C21.5 8.52856 17.4 4.62856 13 5.02856C8.6 5.42856 4.83333 8.19523 3.5 9.52856Z" fill="#E2D1C9"/>
<path d="M3.5 9.52856L2 49.0286C10.8 54.6286 18 50.0286 20.5 47.0286L23 10.5286M3.5 9.52856L23 10.5286M3.5 9.52856C4.83333 8.19523 8.6 5.42856 13 5.02856C17.4 4.62856 21.5 8.52856 23 10.5286M11.5 7.5H15.5" stroke="#060000" stroke-width="2"/>
<path d="M12.6206 27.4957L12.0469 30.6435L11.7047 34.3151M12.6206 27.4957L10.7488 27.1957L8.63781 27.1245L8.8472 27.7391C9.61921 30.0052 10.5749 32.2045 11.7047 34.3151V34.3151M12.6206 27.4957L14.5155 27.5467L16.6033 27.8669V27.8669C15.0454 29.4747 13.6561 31.2377 12.4572 33.1284L11.7047 34.3151" stroke="#060000" stroke-width="1.2"/>
</g>
</svg>
