<svg width="438" height="591" viewBox="0 0 438 591" fill="none" xmlns="http://www.w3.org/2000/svg">
<g clip-path="url(#clip0_25_5347)">
<path d="M0.0654297 591.5V202.645C74.8579 175.936 238.614 150.984 438.065 202.406V591.5H0.0654297Z" fill="url(#paint0_linear_25_5347)" stroke="#060000" stroke-width="2"/>
<path d="M306.065 184.5V184.5C325.441 181.216 345.324 182.697 363.999 188.815L364.565 189L350.565 320L306.065 312V184.5Z" fill="url(#paint1_linear_25_5347)"/>
<path d="M367.583 192.475V192.475C387.19 191.14 406.826 194.597 424.798 202.547L425.343 202.788L398.344 331.738L354.864 319.339L367.583 192.475Z" fill="url(#paint2_linear_25_5347)"/>
<path d="M165.065 181.482V181.482C145.858 178.21 126.143 179.685 107.636 185.778L107.065 185.966L120.946 316.5L165.065 308.528V181.482Z" fill="url(#paint3_linear_25_5347)"/>
<path d="M103.27 186.455V186.455C83.8265 185.201 64.3715 188.72 46.5999 196.706L46.0516 196.953L73.4454 325.332L116.495 312.811L103.27 186.455Z" fill="url(#paint4_linear_25_5347)"/>
<path d="M47.7361 218.369V218.369C28.2723 219.248 9.31872 224.873 -7.47306 234.755L-7.99116 235.06L33.2754 359.674L74.6983 342.521L47.7361 218.369Z" fill="url(#paint5_linear_25_5347)"/>
<path d="M235.565 180.385V180.385C255.234 178.014 275.141 178.472 294.679 181.746L301.477 182.885L301.477 313.377L241.065 306.886L235.565 180.385Z" fill="url(#paint6_linear_25_5347)"/>
<path d="M169.614 183.275V183.275C189.262 178.918 209.473 177.671 229.507 179.579L231.566 179.775L236.566 309.775L168.066 309.775L169.614 183.275Z" fill="url(#paint7_linear_25_5347)"/>
<path d="M0.0654297 591.5V308C74.8579 281.291 238.614 256.339 438.065 307.761V591.5H0.0654297Z" fill="url(#paint8_linear_25_5347)"/>
<path d="M306.065 298V298C325.441 294.716 345.324 296.197 363.999 302.315L364.565 302.5L350.565 433.5L306.065 425.5V298Z" fill="url(#paint9_linear_25_5347)"/>
<path d="M367.583 306.475V306.475C387.19 305.14 406.826 308.597 424.798 316.547L425.343 316.788L398.344 445.738L354.864 433.339L367.583 306.475Z" fill="url(#paint10_linear_25_5347)"/>
<path d="M165.065 295.482V295.482C145.858 292.21 126.143 293.685 107.636 299.778L107.065 299.966L120.946 430.5L165.065 422.528V295.482Z" fill="url(#paint11_linear_25_5347)"/>
<path d="M103.27 300.455V300.455C83.8265 299.201 64.3715 302.72 46.5999 310.706L46.0516 310.953L73.4454 439.332L116.495 426.811L103.27 300.455Z" fill="url(#paint12_linear_25_5347)"/>
<path d="M47.7361 332.447V332.447C28.2723 333.326 9.31872 338.952 -7.47306 348.833L-7.99116 349.138L33.2754 473.753L74.6983 456.6L47.7361 332.447Z" fill="url(#paint13_linear_25_5347)"/>
<path d="M235.565 294.5V294.5C255.234 292.128 275.141 292.586 294.679 295.861L301.477 297L301.477 427.491L241.065 421L235.565 294.5Z" fill="url(#paint14_linear_25_5347)"/>
<path d="M169.614 297.5V297.5C189.262 293.143 209.473 291.896 229.507 293.804L231.566 294L236.566 424L168.066 424L169.614 297.5Z" fill="url(#paint15_linear_25_5347)"/>
<path d="M0.0654297 591.5V457.5C74.8579 430.791 238.614 405.839 438.065 457.261V591.5H0.0654297Z" fill="url(#paint16_linear_25_5347)"/>
<path opacity="0.5" d="M306.065 435.879V435.879C325.441 432.595 345.324 434.076 363.999 440.193L364.565 440.379L350.565 571.379L306.065 563.379V435.879Z" fill="url(#paint17_linear_25_5347)"/>
<path opacity="0.5" d="M367.583 444.354V444.354C387.19 443.019 406.826 446.476 424.798 454.426L425.343 454.667L398.344 583.617L354.864 571.218L367.583 444.354Z" fill="url(#paint18_linear_25_5347)"/>
<path opacity="0.5" d="M165.065 433.361V433.361C145.858 430.089 126.143 431.564 107.636 437.657L107.065 437.845L120.946 568.379L165.065 560.407V433.361Z" fill="url(#paint19_linear_25_5347)"/>
<path opacity="0.5" d="M103.27 438.334V438.334C83.8265 437.079 64.3715 440.599 46.5999 448.585L46.0516 448.831L73.4454 577.211L116.495 564.69L103.27 438.334Z" fill="url(#paint20_linear_25_5347)"/>
<path opacity="0.5" d="M47.7361 470.326V470.326C28.2723 471.205 9.31872 476.83 -7.47306 486.712L-7.99116 487.017L33.2754 611.632L74.6983 594.478L47.7361 470.326Z" fill="url(#paint21_linear_25_5347)"/>
<path opacity="0.5" d="M235.565 432.379V432.379C255.234 430.007 275.141 430.465 294.679 433.739L301.477 434.879L301.477 565.37L241.065 558.879L235.565 432.379Z" fill="url(#paint22_linear_25_5347)"/>
<path opacity="0.5" d="M169.614 435.379V435.379C189.262 431.022 209.473 429.774 229.507 431.683L231.566 431.879L236.566 561.879L168.066 561.879L169.614 435.379Z" fill="url(#paint23_linear_25_5347)"/>
</g>
<defs>
<linearGradient id="paint0_linear_25_5347" x1="219.065" y1="172.5" x2="219.065" y2="1200.5" gradientUnits="userSpaceOnUse">
<stop stop-color="#958779"/>
<stop offset="1" stop-color="#2F2B26"/>
</linearGradient>
<linearGradient id="paint1_linear_25_5347" x1="329.565" y1="304" x2="351.065" y2="184.5" gradientUnits="userSpaceOnUse">
<stop stop-color="#776C61" stop-opacity="0.1"/>
<stop offset="1" stop-color="#DDC9B4" stop-opacity="0.03"/>
</linearGradient>
<linearGradient id="paint2_linear_25_5347" x1="379.045" y1="313.723" x2="412.359" y2="196.964" gradientUnits="userSpaceOnUse">
<stop stop-color="#776C61" stop-opacity="0.1"/>
<stop offset="1" stop-color="#DDC9B4" stop-opacity="0.03"/>
</linearGradient>
<linearGradient id="paint3_linear_25_5347" x1="141.766" y1="300.557" x2="120.242" y2="181.52" gradientUnits="userSpaceOnUse">
<stop stop-color="#776C61" stop-opacity="0.1"/>
<stop offset="1" stop-color="#DDC9B4" stop-opacity="0.03"/>
</linearGradient>
<linearGradient id="paint4_linear_25_5347" x1="92.4931" y1="307.308" x2="58.6935" y2="191.159" gradientUnits="userSpaceOnUse">
<stop stop-color="#776C61" stop-opacity="0.1"/>
<stop offset="1" stop-color="#DDC9B4" stop-opacity="0.03"/>
</linearGradient>
<linearGradient id="paint5_linear_25_5347" x1="50.2381" y1="339.676" x2="3.94147" y2="227.918" gradientUnits="userSpaceOnUse">
<stop stop-color="#776C61" stop-opacity="0.1"/>
<stop offset="1" stop-color="#DDC9B4" stop-opacity="0.03"/>
</linearGradient>
<linearGradient id="paint6_linear_25_5347" x1="278.282" y1="300.768" x2="281.302" y2="179.386" gradientUnits="userSpaceOnUse">
<stop stop-color="#776C61" stop-opacity="0.1"/>
<stop offset="1" stop-color="#DDC9B4" stop-opacity="0.03"/>
</linearGradient>
<linearGradient id="paint7_linear_25_5347" x1="212.331" y1="300.657" x2="215.35" y2="179.276" gradientUnits="userSpaceOnUse">
<stop stop-color="#776C61" stop-opacity="0.1"/>
<stop offset="1" stop-color="#DDC9B4" stop-opacity="0.03"/>
</linearGradient>
<linearGradient id="paint8_linear_25_5347" x1="219.065" y1="172.5" x2="219.065" y2="859" gradientUnits="userSpaceOnUse">
<stop stop-color="#958779"/>
<stop offset="1" stop-color="#2F2B26"/>
</linearGradient>
<linearGradient id="paint9_linear_25_5347" x1="329.565" y1="417.5" x2="351.065" y2="298" gradientUnits="userSpaceOnUse">
<stop stop-color="#776C61" stop-opacity="0.1"/>
<stop offset="1" stop-color="#DDC9B4" stop-opacity="0.03"/>
</linearGradient>
<linearGradient id="paint10_linear_25_5347" x1="379.045" y1="427.723" x2="412.359" y2="310.964" gradientUnits="userSpaceOnUse">
<stop stop-color="#776C61" stop-opacity="0.1"/>
<stop offset="1" stop-color="#DDC9B4" stop-opacity="0.03"/>
</linearGradient>
<linearGradient id="paint11_linear_25_5347" x1="141.766" y1="414.557" x2="120.242" y2="295.52" gradientUnits="userSpaceOnUse">
<stop stop-color="#776C61" stop-opacity="0.1"/>
<stop offset="1" stop-color="#DDC9B4" stop-opacity="0.03"/>
</linearGradient>
<linearGradient id="paint12_linear_25_5347" x1="92.4931" y1="421.308" x2="58.6935" y2="305.159" gradientUnits="userSpaceOnUse">
<stop stop-color="#776C61" stop-opacity="0.1"/>
<stop offset="1" stop-color="#DDC9B4" stop-opacity="0.03"/>
</linearGradient>
<linearGradient id="paint13_linear_25_5347" x1="50.2381" y1="453.754" x2="3.94147" y2="341.997" gradientUnits="userSpaceOnUse">
<stop stop-color="#776C61" stop-opacity="0.1"/>
<stop offset="1" stop-color="#DDC9B4" stop-opacity="0.03"/>
</linearGradient>
<linearGradient id="paint14_linear_25_5347" x1="278.282" y1="414.882" x2="281.302" y2="293.501" gradientUnits="userSpaceOnUse">
<stop stop-color="#776C61" stop-opacity="0.1"/>
<stop offset="1" stop-color="#DDC9B4" stop-opacity="0.03"/>
</linearGradient>
<linearGradient id="paint15_linear_25_5347" x1="212.331" y1="414.882" x2="215.35" y2="293.501" gradientUnits="userSpaceOnUse">
<stop stop-color="#776C61" stop-opacity="0.1"/>
<stop offset="1" stop-color="#DDC9B4" stop-opacity="0.03"/>
</linearGradient>
<linearGradient id="paint16_linear_25_5347" x1="219.065" y1="135" x2="219.065" y2="859" gradientUnits="userSpaceOnUse">
<stop stop-color="#958779"/>
<stop offset="1" stop-color="#2F2B26"/>
</linearGradient>
<linearGradient id="paint17_linear_25_5347" x1="329.565" y1="555.379" x2="351.065" y2="435.879" gradientUnits="userSpaceOnUse">
<stop stop-color="#776C61" stop-opacity="0.1"/>
<stop offset="1" stop-color="#DDC9B4" stop-opacity="0.03"/>
</linearGradient>
<linearGradient id="paint18_linear_25_5347" x1="379.045" y1="565.602" x2="412.359" y2="448.843" gradientUnits="userSpaceOnUse">
<stop stop-color="#776C61" stop-opacity="0.1"/>
<stop offset="1" stop-color="#DDC9B4" stop-opacity="0.03"/>
</linearGradient>
<linearGradient id="paint19_linear_25_5347" x1="141.766" y1="552.436" x2="120.242" y2="433.399" gradientUnits="userSpaceOnUse">
<stop stop-color="#776C61" stop-opacity="0.1"/>
<stop offset="1" stop-color="#DDC9B4" stop-opacity="0.03"/>
</linearGradient>
<linearGradient id="paint20_linear_25_5347" x1="92.4931" y1="559.187" x2="58.6935" y2="443.038" gradientUnits="userSpaceOnUse">
<stop stop-color="#776C61" stop-opacity="0.1"/>
<stop offset="1" stop-color="#DDC9B4" stop-opacity="0.03"/>
</linearGradient>
<linearGradient id="paint21_linear_25_5347" x1="50.2381" y1="591.633" x2="3.94147" y2="479.876" gradientUnits="userSpaceOnUse">
<stop stop-color="#776C61" stop-opacity="0.1"/>
<stop offset="1" stop-color="#DDC9B4" stop-opacity="0.03"/>
</linearGradient>
<linearGradient id="paint22_linear_25_5347" x1="278.282" y1="552.761" x2="281.302" y2="431.38" gradientUnits="userSpaceOnUse">
<stop stop-color="#776C61" stop-opacity="0.1"/>
<stop offset="1" stop-color="#DDC9B4" stop-opacity="0.03"/>
</linearGradient>
<linearGradient id="paint23_linear_25_5347" x1="212.331" y1="552.761" x2="215.35" y2="431.38" gradientUnits="userSpaceOnUse">
<stop stop-color="#776C61" stop-opacity="0.1"/>
<stop offset="1" stop-color="#DDC9B4" stop-opacity="0.03"/>
</linearGradient>
<clipPath id="clip0_25_5347">
<rect width="438" height="591" fill="white"/>
</clipPath>
</defs>
</svg>
